<svg xmlns="http://www.w3.org/2000/svg" width="54" height="54"><path fill="#52555A" fill-rule="nonzero" d="M26.699.007C12.559 1.09 1.089 12.558.007 26.7a3.015 3.015 0 0 0 .805 2.261 2.989 2.989 0 0 0 2.195.97h.942c.52 13.327 11.52 24 24.98 24 13.79 0 25-11.212 25-25 0-13.462-10.672-24.462-24-24.981v-.942c0-.828-.351-1.629-.969-2.195A3.026 3.026 0 0 0 26.7.007zm.152 2h.078c.25 0 .489.09.672.262.207.2.328.461.328.738v14.961a10.25 10.25 0 0 0-1.16.18c-.066.012-.125.027-.187.043-.278.059-.555.129-.825.207-.082.027-.164.055-.25.082a8.748 8.748 0 0 0-.718.266c-.09.035-.18.074-.27.113-.23.101-.453.21-.672.324a5.192 5.192 0 0 0-.254.133 10.02 10.02 0 0 0-.652.398c-.074.047-.145.09-.215.137-.238.164-.473.34-.7.52-.034.03-.073.058-.108.09-.532.437-1.02.925-1.458 1.453-.03.039-.058.078-.09.113-.179.226-.355.457-.519.7-.047.066-.09.14-.137.21a9.338 9.338 0 0 0-.53.91c-.114.219-.224.442-.325.672a12.343 12.343 0 0 0-.379.988c-.027.082-.055.164-.082.25-.078.27-.148.543-.207.82a10.247 10.247 0 0 0-.219 1.352H3.007c-.277 0-.539-.12-.738-.328a.983.983 0 0 1-.262-.75c1-13.16 11.684-23.844 24.844-24.844zm-5.203 3.078a.957.957 0 0 0-.39.043 24.976 24.976 0 0 0-11.762 8.067 1 1 0 0 0 .152 1.406 1.007 1.007 0 0 0 1.406-.145 22.912 22.912 0 0 1 10.813-7.421c.527-.172.816-.735.648-1.262a.992.992 0 0 0-.867-.688zm8.281.875c12.219.52 22 10.63 22 22.97 0 3.491-.789 6.804-2.187 9.773l-10.649-5.578a10.952 10.952 0 0 0-.43-9.305l3.094-2c.461-.3.594-.918.297-1.383a1.004 1.004 0 0 0-1.386-.297l-3.098 2.008a10.977 10.977 0 0 0-7.64-4.168V5.96zm15.828 10.985c-.129.023-.254.07-.37.144l-1.747 1.13c-.465.3-.597.921-.3 1.382a1.002 1.002 0 0 0 1.386.297l1.746-1.129a.998.998 0 0 0-.715-1.824zM28.93 19.929c4.965 0 9 4.035 9 9a8.925 8.925 0 0 1-1.031 4.172c-1.512 2.867-4.512 4.828-7.969 4.828-4.965 0-9-4.035-9-9 0-4.96 4.04-9 9-9zm-22.969 10h12.02c.508 5.598 5.223 10 10.95 10 3.866 0 7.269-2.011 9.23-5.035l10.648 5.578C44.82 47.316 37.406 51.93 28.93 51.93c-12.34 0-22.449-9.781-22.969-22zm8.989 6.008a.954.954 0 0 0-.375.129l-1.735 1a1 1 0 1 0 .5 1.863.965.965 0 0 0 .5-.136l1.735-1a1 1 0 0 0 .367-1.364c-.211-.36-.606-.539-.992-.492zm2.668 3.305a.993.993 0 0 0-.707.293l-1.418 1.414a1 1 0 0 0 .707 1.707c.258 0 .515-.098.71-.293l1.41-1.414a.993.993 0 0 0 0-1.414.991.991 0 0 0-.702-.293zm3.437 2.55a.992.992 0 0 0-.988.493l-1 1.734a.997.997 0 0 0 .363 1.363c.156.09.328.137.5.137.344 0 .68-.184.864-.5l1-1.734a.998.998 0 0 0-.739-1.492zm3.602 1.602c-.383.05-.727.328-.836.73l-.516 1.934a1.002 1.002 0 0 0 .703 1.227c.09.02.176.031.266.031.437 0 .844-.293.965-.742l.515-1.93a1.001 1.001 0 0 0-1.097-1.25zm4.273.535c-.554 0-1 .446-1 1v2c0 .555.446 1 1 1 .555 0 1-.445 1-1v-2c0-.554-.445-1-1-1z"/></svg>