<?xml version="1.0" encoding="UTF-8" standalone="no"?>
<svg
   width="74"
   height="74"
   viewBox="0 0 74 74"
   fill="none"
   version="1.1"
   id="svg16"
   sodipodi:docname="email_circle_gray_icon.svg"
   inkscape:version="1.2.1 (9c6d41e, 2022-07-14)"
   xmlns:inkscape="http://www.inkscape.org/namespaces/inkscape"
   xmlns:sodipodi="http://sodipodi.sourceforge.net/DTD/sodipodi-0.dtd"
   xmlns="http://www.w3.org/2000/svg"
   xmlns:svg="http://www.w3.org/2000/svg">
  <defs
     id="defs20" />
  <sodipodi:namedview
     id="namedview18"
     pagecolor="#ffffff"
     bordercolor="#000000"
     borderopacity="0.25"
     inkscape:showpageshadow="2"
     inkscape:pageopacity="0.0"
     inkscape:pagecheckerboard="0"
     inkscape:deskcolor="#d1d1d1"
     showgrid="false"
     inkscape:zoom="3.1891892"
     inkscape:cx="37"
     inkscape:cy="37"
     inkscape:window-width="1309"
     inkscape:window-height="456"
     inkscape:window-x="0"
     inkscape:window-y="25"
     inkscape:window-maximized="0"
     inkscape:current-layer="svg16" />
  <path
     d="m 37.313459,72.986664 c 19.701678,0 35.673105,-16.041621 35.673105,-35.829886 0,-19.788266 -15.971427,-35.8298625 -35.673105,-35.8298625 -19.701677,0 -35.6731042,16.0415965 -35.6731042,35.8298625 0,19.788265 15.9714272,35.829886 35.6731042,35.829886 z"
     stroke="#52555a"
     stroke-width="2.18098"
     id="path12" />
  <path
     d="m 21.098467,29.003904 c 0,-1.793551 1.45645,-3.247567 3.228054,-3.247567 h 25.973997 c 1.782812,0 3.228055,1.4568 3.228055,3.247567 v 19.562877 c 0,1.793673 -1.456452,3.247688 -3.228055,3.247688 H 24.326521 c -1.782811,0 -3.228054,-1.456921 -3.228054,-3.247688 z m 3.309765,0.02699 v 3.312934 l 12.905709,8.154687 12.97802,-8.286629 v -3.185107 l -12.97802,8.180835 z"
     fill="#52555a"
     id="path14"
     style="stroke-width:1.20781" />
</svg>
