<svg width="29" height="25" viewBox="0 0 29 25" fill="none" xmlns="http://www.w3.org/2000/svg">
<path d="M26.7306 6.69244e-09H20.3958C20.158 -1.75598e-05 19.9225 0.0468357 19.7027 0.137882C19.483 0.228929 19.2834 0.362383 19.1152 0.530619L4.16314 15.4827C3.99491 15.6508 3.86146 15.8504 3.77043 16.0702C3.67939 16.2899 3.63254 16.5254 3.63257 16.7633V23.098C3.63255 23.3359 3.67938 23.5714 3.7704 23.7912C3.86141 24.0109 3.99482 24.2106 4.16301 24.3788C4.3312 24.547 4.53088 24.6804 4.75063 24.7714C4.97039 24.8624 5.20592 24.9093 5.44378 24.9093H11.7785C12.0164 24.9093 12.2519 24.8624 12.4716 24.7714C12.6914 24.6803 12.891 24.5469 13.0592 24.3786L28.0115 9.4266C28.3511 9.08695 28.5418 8.62631 28.5418 8.146V1.81127C28.5419 1.5734 28.495 1.33786 28.404 1.1181C28.313 0.898339 28.1796 0.698658 28.0114 0.530462C27.8432 0.362266 27.6435 0.22885 27.4237 0.137833C27.204 0.0468154 26.9684 -2.0441e-05 26.7306 6.69244e-09Z" fill="#28A8EA"/>
<path d="M26.7305 24.9092H20.3956C19.9153 24.9092 19.4546 24.7184 19.1149 24.3788L16.0869 21.3507V15.6928C16.0869 14.834 16.4281 14.0103 17.0354 13.403C17.6426 12.7958 18.4663 12.4546 19.3251 12.4546H24.9832L28.0111 15.4826C28.3508 15.8223 28.5416 16.2829 28.5416 16.7633V23.0981C28.5416 23.5784 28.3508 24.0391 28.0111 24.3788C27.6715 24.7184 27.2108 24.9092 26.7305 24.9092Z" fill="#0078D4"/>
<path d="M5.44368 0H11.7785C12.2589 7.33949e-07 12.7195 0.190814 13.0592 0.530464L16.0872 3.5585V9.21643C16.0872 9.64168 16.0034 10.0628 15.8407 10.4556C15.678 10.8485 15.4394 11.2055 15.1388 11.5062C14.8381 11.8069 14.4811 12.0454 14.0882 12.2081C13.6953 12.3709 13.2742 12.4546 12.849 12.4546H7.19101L4.16298 9.4266C3.82336 9.08696 3.63257 8.62632 3.63257 8.146V1.81111C3.63257 1.33077 3.82338 0.870112 4.16303 0.530462C4.50268 0.190813 4.96334 0 5.44368 0Z" fill="#50D9FF"/>
<path opacity="0.2" d="M15.0494 6.39847V20.0674C15.0505 20.1372 15.0435 20.2068 15.0286 20.2749C14.9814 20.5556 14.836 20.8105 14.6183 20.994C14.4006 21.1774 14.1249 21.2776 13.8402 21.2766H3.63257V5.18933H13.8402C13.999 5.18906 14.1564 5.22015 14.3032 5.28082C14.45 5.34148 14.5834 5.43054 14.6958 5.54287C14.8081 5.6552 14.8972 5.78861 14.9578 5.93543C15.0185 6.08225 15.0496 6.23961 15.0493 6.39847H15.0494Z" fill="black"/>
<path opacity="0.1" d="M15.5683 6.39861V19.0297C15.564 19.4867 15.3806 19.9237 15.0574 20.2469C14.7342 20.5701 14.2972 20.7535 13.8402 20.7578H3.63257V4.67053H13.8402C14.298 4.67215 14.7366 4.85473 15.0603 5.17846C15.3841 5.50219 15.5666 5.94079 15.5683 6.39861H15.5683Z" fill="black"/>
<path opacity="0.2" d="M15.0494 6.39847V19.0295C15.0496 19.1884 15.0186 19.3458 14.9579 19.4926C14.8972 19.6394 14.8081 19.7728 14.6958 19.8852C14.5835 19.9975 14.4501 20.0865 14.3032 20.1472C14.1564 20.2079 13.999 20.239 13.8402 20.2387H3.63257V5.18933H13.8402C13.999 5.18906 14.1564 5.22015 14.3032 5.28082C14.45 5.34148 14.5834 5.43054 14.6958 5.54287C14.8081 5.6552 14.8972 5.78861 14.9578 5.93543C15.0185 6.08225 15.0496 6.23961 15.0493 6.39847H15.0494Z" fill="black"/>
<path opacity="0.1" d="M14.5304 6.39847V19.0295C14.5307 19.1884 14.4996 19.3458 14.4389 19.4926C14.3783 19.6394 14.2892 19.7728 14.1769 19.8852C14.0645 19.9975 13.9311 20.0865 13.7843 20.1472C13.6375 20.2079 13.4801 20.239 13.3212 20.2387H3.63257V5.18933H13.3212C13.4801 5.18906 13.6375 5.22015 13.7843 5.28082C13.9311 5.34148 14.0645 5.43054 14.1768 5.54287C14.2892 5.6552 14.3782 5.78861 14.4389 5.93543C14.4996 6.08225 14.5306 6.23961 14.5304 6.39847H14.5304Z" fill="black"/>
<path d="M13.3196 5.18933H1.21085C0.542116 5.18933 0 5.73145 0 6.40018V18.5089C0 19.1776 0.542116 19.7197 1.21085 19.7197H13.3196C13.9883 19.7197 14.5304 19.1776 14.5304 18.5089V6.40018C14.5304 5.73145 13.9883 5.18933 13.3196 5.18933Z" fill="#0078D4"/>
<path d="M9.64471 9.79833H6.24713V11.7852H9.43624V13.0585H6.24713V15.1221H9.82582V16.3901H4.70483V8.51929H9.64471V9.79833Z" fill="white"/>
</svg>
