<svg xmlns="http://www.w3.org/2000/svg" width="56" height="48"><path fill="#52555A" fill-rule="nonzero" d="M3 0C1.348 0 0 1.348 0 3v42c0 1.652 1.348 3 3 3h50c1.652 0 3-1.348 3-3V3c0-1.652-1.348-3-3-3H3zm0 2h50c.55 0 1 .45 1 1v33h-6V23c0-.555-.445-1-1-1h-6c-.555 0-1 .445-1 1v5h-4v-1c0-.555-.445-1-1-1h-6c-.555 0-1 .445-1 1v3H17c-.555 0-1 .445-1 1v1h-5c-.555 0-1 .445-1 1v3H2V3c0-.55.45-1 1-1zm37.516 4c-.555 0-1 .445-1 1 0 .555.445 1 1 1h4.238l-5.606 6.23A2.97 2.97 0 0 0 38 14c-.559 0-1.074.164-1.52.43l-1.675-1.395c.12-.324.195-.672.195-1.035 0-1.652-1.348-3-3-3s-3 1.348-3 3c0 .578.172 1.117.457 1.578l-3.64 4.55A2.973 2.973 0 0 0 25 18c-.559 0-1.074.164-1.52.43l-1.675-1.395c.12-.324.195-.672.195-1.035 0-1.652-1.348-3-3-3s-3 1.348-3 3c0 .39.078.762.219 1.105l-3.766 3.286A3.001 3.001 0 0 0 11 20c-1.652 0-3 1.348-3 3s1.348 3 3 3 3-1.348 3-3c0-.395-.082-.766-.219-1.11l3.758-3.285c.434.243.93.395 1.461.395.559 0 1.074-.164 1.52-.43l1.675 1.395A2.953 2.953 0 0 0 22 21c0 1.652 1.348 3 3 3s3-1.348 3-3c0-.64-.203-1.23-.547-1.719l3.567-4.457c.308.106.636.176.98.176a2.98 2.98 0 0 0 1.523-.43l1.672 1.395A2.953 2.953 0 0 0 35 17c0 1.652 1.348 3 3 3s3-1.348 3-3c0-.516-.145-.996-.375-1.422L46 9.605v3.88c0 .554.445 1 1 1 .555 0 1-.446 1-1V7c0-.008-.004-.016-.004-.027-.004-.07-.027-.141-.043-.211-.016-.059-.02-.114-.043-.168-.02-.047-.058-.086-.086-.13-.047-.066-.082-.136-.14-.187-.008-.007-.008-.015-.012-.023-.04-.031-.086-.043-.125-.066-.063-.043-.121-.09-.192-.118-.066-.027-.14-.03-.21-.039C47.094 6.023 47.05 6 47 6h-6.484zM32 11c.55 0 1 .45 1 1s-.45 1-1 1-1-.45-1-1 .45-1 1-1zm-13 4c.55 0 1 .45 1 1s-.45 1-1 1-1-.45-1-1 .45-1 1-1zm19 1c.55 0 1 .45 1 1s-.45 1-1 1-1-.45-1-1 .45-1 1-1zm-13 4c.55 0 1 .45 1 1s-.45 1-1 1-1-.45-1-1 .45-1 1-1zm-14 2c.55 0 1 .45 1 1s-.45 1-1 1-1-.45-1-1 .45-1 1-1zm31 2h4v12h-4V24zm-12 4h4v8h-4v-8zm6 2h4v6h-4v-6zm-18 2h4v4h-4v-4zm6 0h4v4h-4v-4zm-12 2h4v2h-4v-2zM2 38h52v7c0 .55-.45 1-1 1H3c-.55 0-1-.45-1-1v-7zm4 2c-.555 0-1 .445-1 1v2c0 .555.445 1 1 1 .555 0 1-.445 1-1v-2c0-.555-.445-1-1-1zm5 0c-.555 0-1 .445-1 1v2c0 .555.445 1 1 1 .555 0 1-.445 1-1v-2c0-.555-.445-1-1-1zm5 0c-.555 0-1 .445-1 1v2c0 .555.445 1 1 1 .555 0 1-.445 1-1v-2c0-.555-.445-1-1-1zm5 0c-.555 0-1 .445-1 1v2c0 .555.445 1 1 1 .555 0 1-.445 1-1v-2c0-.555-.445-1-1-1zm5 0c-.555 0-1 .445-1 1v2c0 .555.445 1 1 1 .555 0 1-.445 1-1v-2c0-.555-.445-1-1-1zm5 0c-.555 0-1 .445-1 1v2c0 .555.445 1 1 1 .555 0 1-.445 1-1v-2c0-.555-.445-1-1-1zm5 0c-.555 0-1 .445-1 1v2c0 .555.445 1 1 1 .555 0 1-.445 1-1v-2c0-.555-.445-1-1-1zm5 0c-.555 0-1 .445-1 1v2c0 .555.445 1 1 1 .555 0 1-.445 1-1v-2c0-.555-.445-1-1-1zm5 0c-.555 0-1 .445-1 1v2c0 .555.445 1 1 1 .555 0 1-.445 1-1v-2c0-.555-.445-1-1-1zm5 0c-.555 0-1 .445-1 1v2c0 .555.445 1 1 1 .555 0 1-.445 1-1v-2c0-.555-.445-1-1-1z"/></svg>